<svg width="340" height="306" viewBox="0 0 340 306" fill="none" xmlns="http://www.w3.org/2000/svg">
<g clip-path="url(#clip0_38_16)">
<rect width="340" height="306" rx="50" fill="#75BC7B"/>
<path d="M176.822 151.291C178.105 150.52 179.483 149.921 180.922 149.509L181.771 145.454L188.631 145.331L189.615 149.36C191.064 149.726 192.456 150.286 193.755 151.025L197.227 148.758L202.176 153.487L200.031 157.03C200.803 158.312 201.402 159.691 201.813 161.13L205.868 161.979L205.991 168.839L201.962 169.81C201.608 171.264 201.059 172.663 200.329 173.969L202.597 177.441L197.836 182.371L194.292 180.227C193.01 180.998 191.631 181.597 190.192 182.008L189.343 186.063L182.483 186.186L181.499 182.157C180.046 181.801 178.647 181.252 177.34 180.525L173.874 182.792L168.938 178.031L171.083 174.5C170.311 173.218 169.712 171.839 169.301 170.4L165.253 169.551L165.123 162.685L169.139 161.707C169.496 160.254 170.045 158.855 170.772 157.548L168.491 154.083L173.253 149.147L176.796 151.291H176.822ZM180.482 160.431C179.47 161.478 178.792 162.801 178.533 164.233C178.274 165.665 178.445 167.142 179.025 168.477C179.606 169.812 180.569 170.945 181.793 171.732C183.017 172.52 184.447 172.927 185.902 172.901C187.358 172.876 188.773 172.419 189.969 171.59C191.165 170.76 192.088 169.594 192.621 168.24C193.154 166.886 193.274 165.404 192.965 163.981C192.656 162.559 191.932 161.26 190.885 160.249C189.481 158.894 187.597 158.152 185.646 158.186C183.695 158.22 181.837 159.027 180.482 160.431Z" fill="#343434"/>
<path d="M180.482 160.431C180.873 159.961 181.339 159.558 181.861 159.239C183.064 158.476 184.46 158.075 185.883 158.082C187.307 158.088 188.699 158.503 189.894 159.278C191.006 160.019 191.9 161.043 192.485 162.244C192.805 162.891 193.024 163.584 193.133 164.298C193.265 165.042 193.278 165.803 193.172 166.552C192.964 168.14 192.251 169.618 191.138 170.77C190.025 171.921 188.571 172.684 186.992 172.946C186.248 173.083 185.486 173.099 184.738 172.991C184.047 172.893 183.375 172.694 182.742 172.401C181.516 171.85 180.461 170.98 179.685 169.882C179.007 168.932 178.563 167.835 178.389 166.682C178.142 165.011 178.479 163.307 179.342 161.856C179.641 161.323 180.026 160.844 180.482 160.437C180.106 160.908 179.762 161.404 179.452 161.92C178.655 163.357 178.365 165.021 178.629 166.643C178.801 167.754 179.234 168.808 179.892 169.72C180.644 170.767 181.661 171.594 182.84 172.116C183.471 172.406 184.145 172.594 184.835 172.673C185.551 172.775 186.28 172.759 186.992 172.628C188.502 172.378 189.891 171.648 190.954 170.547C192.017 169.445 192.697 168.031 192.893 166.513C193.094 165.104 192.868 163.667 192.245 162.387C191.718 161.302 190.928 160.366 189.947 159.663C188.966 158.961 187.826 158.514 186.629 158.364C184.996 158.16 183.342 158.512 181.933 159.362C181.427 159.687 180.942 160.044 180.482 160.431Z" fill="#263238"/>
<path d="M176.822 151.291C176.744 151.255 176.668 151.214 176.595 151.168L175.915 150.772L173.253 149.192H173.317L168.576 154.154V154.044L170.869 157.503V157.555V157.606C170.15 158.909 169.606 160.301 169.249 161.746V161.81H169.185L165.155 162.802L165.253 162.685C165.291 164.842 165.337 167.135 165.382 169.545L165.279 169.415L169.34 170.257H169.418V170.342C169.824 171.769 170.421 173.135 171.193 174.403L171.238 174.481L171.193 174.552L169.049 178.102V177.914L173.985 182.675H173.79L177.256 180.402L177.34 180.35L177.424 180.395C178.721 181.112 180.106 181.656 181.544 182.015H181.641V182.112C181.946 183.407 182.289 184.748 182.626 186.141L182.464 186.011L189.324 185.895L189.162 186.024C189.427 184.729 189.713 183.362 190.004 181.963V181.866H190.108C191.531 181.459 192.894 180.867 194.163 180.104L194.253 180.052L194.338 180.104L197.881 182.254H197.674L202.441 177.325V177.532L200.168 174.06L200.116 173.976L200.161 173.891C200.885 172.597 201.432 171.211 201.787 169.772V169.674H201.878L205.907 168.69L205.784 168.845C205.745 166.505 205.706 164.218 205.667 161.985L205.797 162.134L201.735 161.286H201.644V161.202C201.243 159.772 200.651 158.404 199.883 157.134L199.837 157.056L199.883 156.978L202.04 153.441V153.616L197.117 148.842H197.272L193.806 151.109L193.742 151.148H193.677C192.38 150.421 190.993 149.87 189.551 149.509H189.486V149.445C189.136 147.981 188.838 146.659 188.514 145.415L188.611 145.487L181.751 145.584L181.823 145.526C181.479 147.145 181.175 148.473 180.961 149.581C179.879 149.883 178.829 150.291 177.826 150.798C177.489 150.96 177.249 151.096 177.087 151.187C177.008 151.233 176.926 151.274 176.841 151.31L177.074 151.161C177.23 151.064 177.47 150.921 177.8 150.747C178.794 150.206 179.843 149.772 180.929 149.451L180.89 149.496C181.117 148.389 181.389 147.054 181.713 145.428V145.37H181.777L188.631 145.228H188.715V145.305C189.019 146.549 189.363 147.896 189.713 149.334L189.628 149.25C191.094 149.608 192.505 150.159 193.826 150.889H193.696L197.162 148.609L197.246 148.551L197.317 148.622C198.885 150.125 200.524 151.705 202.26 153.383L202.344 153.461L202.286 153.551L200.142 157.101V156.952C200.925 158.243 201.531 159.633 201.942 161.085L201.832 160.981L205.887 161.817H206.01V161.94C206.056 164.175 206.095 166.474 206.14 168.8V168.93L206.017 168.962L201.988 169.953L202.111 169.83C201.751 171.299 201.195 172.713 200.459 174.034V173.859L202.733 177.325L202.804 177.441L202.713 177.532L197.952 182.468L197.855 182.565L197.738 182.5L194.195 180.35H194.402C193.109 181.131 191.717 181.737 190.263 182.151L190.38 182.021C190.088 183.414 189.803 184.8 189.538 186.083V186.212H189.408L182.548 186.335H182.412V186.206C182.069 184.813 181.764 183.44 181.427 182.176L181.544 182.3C180.077 181.936 178.665 181.379 177.347 180.641H177.508L174.043 182.915L173.939 182.98L173.849 182.895L168.919 178.128L168.828 178.044L168.893 177.94L171.044 174.397V174.546C170.238 173.274 169.609 171.899 169.172 170.458L169.275 170.562L165.214 169.707H165.11V169.603C165.071 167.193 165.039 164.9 165 162.743V162.646H165.097L169.139 161.597L169.055 161.681C169.416 160.221 169.969 158.816 170.7 157.503V157.606L168.44 154.134L168.401 154.076L168.446 154.024L173.24 149.082H173.279L175.87 150.701L176.517 151.122L176.822 151.291Z" fill="#263238"/>
<path d="M326.652 91.961C328.879 90.6214 331.276 89.5844 333.777 88.8776L335.241 81.8493L347.115 81.642L348.825 88.612C351.331 89.2305 353.744 90.178 356.002 91.4298L362 87.4978L370.545 95.744L366.826 101.878C368.169 104.105 369.206 106.501 369.91 109.004L376.938 110.468L377.145 122.341L370.175 124.052C369.562 126.566 368.614 128.986 367.358 131.248L371.29 137.247L363.043 145.791L356.909 142.073C354.682 143.413 352.285 144.45 349.784 145.156L348.32 152.184L336.452 152.392L334.742 145.422C332.229 144.806 329.809 143.858 327.546 142.604L321.541 146.536L312.997 138.283L316.721 132.149C315.375 129.924 314.335 127.527 313.631 125.023L306.603 123.559L306.396 111.686L313.366 109.982C313.983 107.469 314.931 105.049 316.184 102.785L312.297 96.7869L320.543 88.2428L326.677 91.961H326.652ZM332.98 107.78C331.23 109.593 330.056 111.884 329.608 114.364C329.16 116.844 329.457 119.401 330.462 121.712C331.467 124.023 333.135 125.984 335.255 127.347C337.375 128.71 339.851 129.414 342.371 129.37C344.891 129.326 347.341 128.535 349.411 127.098C351.481 125.661 353.079 123.642 354.002 121.297C354.926 118.952 355.133 116.386 354.597 113.924C354.062 111.461 352.808 109.212 350.995 107.462C348.563 105.117 345.3 103.834 341.922 103.893C338.544 103.953 335.328 105.351 332.98 107.78Z" fill="#343434"/>
<path d="M332.98 107.78L333.123 107.631L333.557 107.203C333.784 106.966 334.031 106.75 334.295 106.556C334.643 106.268 335.011 106.006 335.397 105.772C336.437 105.098 337.575 104.591 338.771 104.269C340.357 103.824 342.013 103.692 343.649 103.88C345.636 104.101 347.544 104.785 349.22 105.875C351.145 107.143 352.696 108.9 353.715 110.967C354.271 112.079 354.654 113.27 354.849 114.497C354.957 115.129 355.022 115.768 355.043 116.408C355.045 117.058 355.002 117.707 354.914 118.352C354.548 121.072 353.328 123.605 351.429 125.587C350.457 126.572 349.341 127.404 348.119 128.055C346.931 128.687 345.649 129.125 344.323 129.351C343.68 129.457 343.031 129.522 342.379 129.545C341.73 129.544 341.081 129.503 340.436 129.422C339.201 129.267 337.998 128.924 336.867 128.405C334.766 127.461 332.956 125.971 331.626 124.091C330.578 122.603 329.859 120.91 329.518 119.122C329.176 117.335 329.219 115.496 329.644 113.726C329.927 112.521 330.393 111.365 331.024 110.3C331.245 109.907 331.496 109.532 331.775 109.179C331.969 108.904 332.185 108.646 332.423 108.408L332.838 107.968C332.882 107.915 332.93 107.866 332.98 107.819C332.98 107.819 332.948 107.884 332.857 107.987L332.475 108.454C332.258 108.7 332.058 108.962 331.879 109.237C331.615 109.595 331.377 109.972 331.167 110.364C330.567 111.429 330.131 112.578 329.871 113.772C329.509 115.349 329.454 116.981 329.709 118.578C330.006 120.518 330.756 122.36 331.899 123.955C333.208 125.786 334.984 127.234 337.042 128.146C338.144 128.648 339.318 128.978 340.52 129.124C341.141 129.205 341.766 129.244 342.392 129.241C343.029 129.221 343.663 129.156 344.29 129.046C346.927 128.6 349.351 127.322 351.209 125.398C353.067 123.475 354.261 121.008 354.616 118.358C354.698 117.727 354.74 117.09 354.739 116.454C354.721 115.828 354.661 115.205 354.558 114.588C354.371 113.39 354.002 112.228 353.463 111.142C352.184 108.504 350.027 106.393 347.362 105.17C344.697 103.948 341.689 103.692 338.856 104.444C337.672 104.75 336.54 105.233 335.5 105.875C335.114 106.101 334.744 106.352 334.392 106.627C334.123 106.822 333.869 107.039 333.635 107.275L333.181 107.676C333.026 107.741 332.987 107.786 332.98 107.78Z" fill="#263238"/>
<path d="M326.652 91.9609C326.652 91.9609 326.522 91.8961 326.256 91.7406L325.084 91.041L320.491 88.288H320.556C318.457 90.471 315.691 93.3601 312.329 96.8516V96.7479C313.521 98.5617 314.849 100.583 316.274 102.74V102.792V102.843C315.023 105.103 314.078 107.519 313.463 110.027V110.092H313.398L306.428 111.809L306.519 111.692C306.59 115.43 306.661 119.401 306.739 123.566L306.635 123.436L313.664 124.894H313.741V124.971C314.451 127.463 315.49 129.848 316.831 132.064L316.877 132.136L316.831 132.239L313.113 138.374V138.192L321.657 146.432H321.463L327.461 142.5L327.545 142.448L327.63 142.494C329.883 143.745 332.292 144.693 334.794 145.311H334.891V145.409C335.429 147.592 336.012 149.975 336.601 152.379L336.439 152.255L348.313 152.042L348.151 152.178C348.611 149.956 349.11 147.559 349.615 145.149V145.052L349.712 145.02C352.201 144.321 354.585 143.29 356.799 141.956L356.89 141.904L356.974 141.956L363.108 145.674H362.901L371.147 137.13V137.337L367.215 131.339L367.163 131.255L367.209 131.164C368.465 128.915 369.415 126.507 370.033 124.006V123.909H370.13L377.106 122.205L376.983 122.361C376.91 118.314 376.841 114.357 376.776 110.487L376.899 110.643L369.877 109.172H369.787V109.088C369.084 106.59 368.049 104.198 366.71 101.975L366.664 101.898L366.71 101.794L370.434 95.6661V95.841L361.916 87.6079H362.072L356.067 91.5334L356.009 91.5787L355.944 91.5398C353.691 90.2801 351.279 89.328 348.773 88.7091H348.708V88.6443L347.011 81.6743L347.108 81.752L335.235 81.9334L335.312 81.8751C334.716 84.6864 334.23 86.986 333.829 88.8969H333.796C331.92 89.4212 330.102 90.133 328.368 91.0216C327.792 91.3066 327.377 91.5463 327.073 91.6694C326.768 91.7925 326.652 91.8961 326.652 91.8961C326.652 91.8961 326.788 91.8054 327.06 91.6435C327.332 91.4815 327.746 91.2354 328.316 90.9374C330.048 90.0552 331.864 89.352 333.738 88.8386H333.673C334.069 86.8953 334.541 84.6216 335.118 81.8103V81.752H335.176L347.05 81.5188H347.128V81.5965C347.659 83.7536 348.222 86.0338 348.851 88.5666L348.766 88.4888C351.293 89.1081 353.726 90.06 356.002 91.3196H355.879L361.877 87.3811L361.962 87.3228L362.033 87.3941L370.583 95.6338L370.668 95.7115L370.609 95.8086L366.891 101.95V101.794C368.242 104.019 369.288 106.416 370 108.92L369.884 108.809L376.912 110.273H377.035V110.403C377.109 114.264 377.18 118.222 377.249 122.277V122.4H377.119L370.149 124.11L370.273 123.993C369.649 126.523 368.69 128.959 367.422 131.235V131.067L371.354 137.065L371.432 137.175L371.335 137.273L363.147 145.907L363.056 146.004L362.94 145.933L356.805 142.215H356.993C354.766 143.559 352.37 144.601 349.868 145.311L349.991 145.188C349.486 147.598 348.987 149.995 348.527 152.21V152.346H348.391L336.517 152.553H336.388L336.355 152.424C335.766 150.021 335.183 147.637 334.645 145.454L334.768 145.577C332.238 144.95 329.803 143.989 327.526 142.72H327.688L321.69 146.652L321.579 146.724L321.489 146.633L312.951 138.38L312.867 138.296L312.932 138.192L316.65 132.064V132.239C315.309 130.012 314.27 127.615 313.56 125.114L313.664 125.211L306.635 123.741H306.532V123.637C306.458 119.465 306.394 115.507 306.337 111.763V111.666H306.435L313.405 109.969L313.327 110.047C313.954 107.523 314.915 105.094 316.184 102.824V102.928L312.297 96.9163L312.258 96.858L312.303 96.8127C315.678 93.3342 318.47 90.4645 320.575 88.288H320.608H320.64L325.175 91.0799L326.341 91.7989L326.652 91.9609Z" fill="#263238"/>
<path d="M283.795 50.6851C285.213 49.8391 286.738 49.1856 288.329 48.7418L289.262 44.2463L296.847 44.1167L297.942 48.5734C299.551 48.9669 301.1 49.5747 302.548 50.3807L306.383 47.8673L311.843 53.1402L309.466 57.0592C310.31 58.4787 310.964 60.0033 311.409 61.5936L315.898 62.5264L316.034 70.1118L311.578 71.2065C311.181 72.8156 310.571 74.3645 309.764 75.8122L312.277 79.647L307.011 85.1012L303.124 82.7239C301.706 83.5697 300.181 84.2232 298.59 84.6672L297.657 89.1563L290.065 89.2923L288.977 84.8356C287.368 84.4381 285.819 83.8282 284.371 83.0219L280.537 85.5352L275.076 80.2689L277.453 76.3434C276.606 74.9256 275.952 73.4005 275.51 71.809L271.021 70.8762L270.839 63.2972L275.296 62.209C275.688 60.5994 276.296 59.0502 277.103 57.6033L274.59 53.7685L279.863 48.3078L283.795 50.6851ZM287.843 60.7903C286.722 61.948 285.97 63.4121 285.682 64.9975C285.394 66.5829 285.582 68.2181 286.224 69.6963C286.865 71.1744 287.931 72.429 289.286 73.3011C290.641 74.1733 292.224 74.6238 293.835 74.5957C295.446 74.5675 297.013 74.062 298.337 73.1431C299.66 72.2241 300.681 70.9331 301.271 69.4335C301.861 67.9338 301.992 66.293 301.648 64.7187C301.305 63.1443 300.502 61.7073 299.341 60.5895C298.571 59.845 297.662 59.2595 296.666 58.8666C295.669 58.4737 294.605 58.281 293.535 58.2997C292.464 58.3183 291.407 58.5479 290.425 58.9753C289.443 59.4026 288.555 60.0194 287.811 60.7903H287.843Z" fill="#343434"/>
<path d="M287.811 60.79C288.246 60.2791 288.76 59.8416 289.333 59.4944C290.664 58.645 292.211 58.1969 293.789 58.2038C295.368 58.2107 296.911 58.6723 298.234 59.5333C299.479 60.3447 300.481 61.4771 301.136 62.811C301.496 63.5291 301.745 64.298 301.874 65.0912C302.026 65.9144 302.041 66.7569 301.92 67.5851C301.695 69.3507 300.908 70.997 299.675 72.2804C298.442 73.5638 296.828 74.4159 295.073 74.7106C293.444 74.9694 291.775 74.7441 290.273 74.0628C289.007 73.4925 287.904 72.6126 287.068 71.5044C286.231 70.3961 285.687 69.095 285.486 67.7211C285.215 65.8735 285.587 63.9888 286.541 62.3835C286.887 61.793 287.324 61.2616 287.837 60.8094C287.429 61.3389 287.051 61.8903 286.703 62.4612C285.824 64.0506 285.505 65.8895 285.797 67.6823C285.989 68.9069 286.466 70.0694 287.189 71.0766C288.017 72.2295 289.134 73.1434 290.428 73.726C291.865 74.3633 293.459 74.5595 295.008 74.2895C296.674 74.0071 298.206 73.1989 299.38 71.9833C300.553 70.7676 301.307 69.2082 301.531 67.5333C301.647 66.742 301.636 65.9373 301.499 65.1495C301.385 64.3771 301.152 63.6273 300.805 62.9276C300.223 61.7289 299.35 60.6947 298.266 59.9187C297.183 59.1427 295.922 58.6495 294.6 58.4839C292.799 58.2591 290.974 58.6445 289.418 59.5786C288.862 59.9546 288.325 60.3589 287.811 60.79Z" fill="#263238"/>
<path d="M283.795 50.6851L283.542 50.5491L282.791 50.1151L279.843 48.3661H279.921L274.648 53.8592V53.7297L277.181 57.558L277.22 57.6163L277.181 57.6811C276.387 59.1195 275.788 60.6575 275.4 62.2543V62.3321H275.322L270.839 63.4398L270.95 63.2973C270.995 65.6875 271.047 68.2203 271.099 70.8827L270.975 70.7337L275.465 71.66H275.562V71.7572C276.012 73.3335 276.665 74.8446 277.505 76.2527L277.557 76.3369L277.505 76.4276L275.134 80.3531L275.102 80.1328L280.569 85.3992H280.336L284.171 82.8859L284.268 82.8211L284.365 82.8794C285.792 83.6697 287.317 84.2707 288.899 84.6673H289.016V84.7839C289.359 86.1766 289.735 87.6988 290.111 89.234L289.916 89.0851L297.502 88.949L297.314 89.111C297.605 87.6923 297.923 86.1636 298.247 84.6219V84.4988H298.363C299.938 84.0553 301.446 83.4016 302.846 82.5555L302.949 82.4907L303.053 82.5555L306.972 84.9328H306.726L311.992 79.4721V79.7183L309.602 75.8835L309.537 75.7863L309.596 75.6827C310.392 74.2572 310.995 72.7324 311.39 71.1483V71.0317H311.507L315.963 69.9434L315.814 70.1313C315.775 67.5402 315.73 65.0074 315.691 62.5394L315.834 62.7207L311.345 61.7815H311.241L311.209 61.6778C310.763 60.0998 310.109 58.5881 309.265 57.1823L309.207 57.0916L309.265 57.0009L311.649 53.1143V53.3151L306.195 48.0357H306.389L302.58 50.4778L302.509 50.5232L302.431 50.4843C300.998 49.6769 299.461 49.0668 297.864 48.6706H297.787V48.5928C297.398 46.9734 297.042 45.5159 296.711 44.1362L296.828 44.2268L289.236 44.3305L289.327 44.2592C288.938 46.0536 288.627 47.4981 288.368 48.7483V48.7872H288.329C287.134 49.1233 285.974 49.5723 284.864 50.128C284.494 50.3094 284.216 50.4584 284.048 50.5556C283.959 50.6076 283.868 50.6552 283.775 50.6981L284.035 50.5297C284.203 50.426 284.469 50.2641 284.831 50.0697C285.932 49.4886 287.088 49.0219 288.284 48.677L288.239 48.7289C288.485 47.4981 288.783 46.0276 289.145 44.2333V44.1621H289.217L296.802 44.0001H296.899V44.0908L298.046 48.5151L297.949 48.4179C299.566 48.8137 301.124 49.4236 302.58 50.2317H302.431L306.26 47.7054L306.363 47.6406L306.447 47.7248L311.915 52.9847L312.012 53.0819L311.947 53.192L309.583 57.0981V56.9167C310.444 58.3501 311.115 59.8896 311.578 61.4964L311.442 61.3734L315.931 62.2997L316.073 62.3321V62.4746C316.121 64.9448 316.166 67.4754 316.209 70.0665V70.2155L316.06 70.2543L311.649 71.3491L311.792 71.2065C311.385 72.8412 310.762 74.4141 309.939 75.8835V75.6827L312.452 79.5175L312.537 79.647L312.426 79.7636L307.16 85.2243L307.05 85.3409L306.914 85.2567L302.995 82.8794H303.196C301.764 83.7474 300.221 84.4165 298.609 84.8681L298.752 84.7191C298.435 86.2608 298.104 87.7895 297.819 89.2081L297.787 89.3636H297.625L290.039 89.4932H289.884L289.845 89.3442C289.469 87.8025 289.094 86.2802 288.757 84.8875L288.899 85.03C287.275 84.6273 285.711 84.0108 284.248 83.1968H284.443L280.608 85.7037L280.485 85.7879L280.375 85.6843L274.914 80.4179L274.81 80.3207L274.888 80.1976L277.265 76.311V76.4859C276.405 75.0534 275.739 73.5135 275.283 71.9061L275.413 72.0227L270.924 71.077H270.794V70.9539C270.755 68.2916 270.716 65.7717 270.677 63.3685V63.1871H270.788L275.244 62.1054L275.147 62.2025C275.551 60.5845 276.167 59.0271 276.98 57.5709V57.694L274.486 53.8592L274.441 53.788L274.499 53.7297L279.798 48.2949H279.831H279.876L282.771 50.0892L283.51 50.5556C283.678 50.6204 283.795 50.6851 283.795 50.6851Z" fill="#263238"/>
<path d="M188.896 207.323C191.209 205.919 193.699 204.83 196.3 204.084L197.829 196.751L210.221 196.531L212.002 203.805C214.63 204.452 217.159 205.448 219.523 206.766L225.787 202.659L234.7 211.268L230.814 217.668C232.218 219.985 233.307 222.48 234.053 225.085L241.385 226.607L241.606 238.999L234.325 240.78C233.683 243.409 232.689 245.938 231.371 248.301L235.471 254.565L226.856 263.498L220.449 259.611C218.134 261.015 215.642 262.104 213.039 262.85L211.517 270.183L199.125 270.403L197.337 263.089C194.711 262.447 192.183 261.453 189.823 260.136L183.559 264.242L174.645 255.653L178.532 249.247C177.124 246.933 176.035 244.441 175.293 241.836L167.973 240.314L167.753 227.922L175.028 226.166C175.675 223.539 176.67 221.009 177.988 218.646L173.881 212.382L182.49 203.469L188.896 207.355V207.323ZM195.497 223.828C193.67 225.719 192.444 228.109 191.976 230.697C191.507 233.284 191.816 235.952 192.865 238.364C193.913 240.776 195.653 242.822 197.864 244.245C200.076 245.667 202.66 246.402 205.289 246.356C207.918 246.309 210.474 245.484 212.635 243.985C214.795 242.486 216.462 240.379 217.424 237.932C218.387 235.485 218.603 232.808 218.043 230.238C217.484 227.669 216.175 225.323 214.283 223.498C211.746 221.054 208.343 219.716 204.822 219.778C201.3 219.84 197.946 221.296 195.497 223.828Z" fill="#343434"/>
<path d="M195.497 223.828C195.543 223.773 195.593 223.721 195.646 223.673L196.093 223.226C196.336 222.991 196.596 222.774 196.87 222.578C197.232 222.278 197.615 222.005 198.017 221.762C199.103 221.059 200.292 220.53 201.541 220.194C203.374 219.687 205.293 219.575 207.173 219.865C209.052 220.155 210.848 220.842 212.443 221.878C213.998 222.881 215.325 224.2 216.337 225.749C217.349 227.298 218.024 229.042 218.318 230.869C218.431 231.529 218.498 232.196 218.519 232.864C218.521 233.547 218.477 234.228 218.389 234.905C218.211 236.295 217.808 237.647 217.197 238.908C216.565 240.204 215.739 241.397 214.749 242.445C213.734 243.477 212.571 244.35 211.296 245.036C210.056 245.686 208.72 246.134 207.338 246.364C206.665 246.475 205.986 246.543 205.304 246.565C204.635 246.567 203.966 246.524 203.303 246.435C202.646 246.353 201.997 246.223 201.359 246.047C200.746 245.874 200.147 245.658 199.565 245.399C197.512 244.487 195.722 243.07 194.363 241.281C193.004 239.491 192.119 237.387 191.792 235.164C191.536 233.464 191.613 231.73 192.019 230.06C192.312 228.8 192.799 227.594 193.463 226.484C193.693 226.074 193.952 225.682 194.24 225.311C194.432 225.027 194.649 224.76 194.888 224.515L195.316 224.048L195.471 223.893C195.471 223.893 195.432 223.958 195.342 224.068L194.94 224.554C194.705 224.81 194.488 225.083 194.292 225.37C194.019 225.747 193.771 226.14 193.547 226.549C192.916 227.66 192.453 228.858 192.174 230.105C191.482 233.087 191.851 236.217 193.218 238.957C194.585 241.696 196.863 243.873 199.662 245.114C200.23 245.375 200.817 245.591 201.418 245.762C202.034 245.93 202.662 246.056 203.296 246.137C203.941 246.218 204.59 246.259 205.24 246.26C205.904 246.236 206.566 246.167 207.222 246.053C208.579 245.837 209.892 245.399 211.108 244.758C213.625 243.45 215.647 241.358 216.867 238.798C217.456 237.572 217.848 236.26 218.027 234.911C218.113 234.252 218.159 233.588 218.163 232.923C218.141 232.271 218.076 231.622 217.968 230.979C217.773 229.729 217.386 228.517 216.822 227.384C215.796 225.286 214.231 223.498 212.287 222.202C210.738 221.153 208.983 220.444 207.14 220.123C205.297 219.801 203.406 219.874 201.593 220.337C200.356 220.657 199.175 221.161 198.088 221.833C197.684 222.066 197.299 222.33 196.935 222.623C196.652 222.817 196.386 223.033 196.138 223.271L195.665 223.692C195.562 223.789 195.504 223.835 195.497 223.828Z" fill="#263238"/>
<path d="M188.896 207.323C188.896 207.323 188.754 207.252 188.482 207.09L187.277 206.364L182.483 203.488H182.548L173.946 212.414V212.311C175.196 214.202 176.582 216.314 178.065 218.568V218.613V218.665C176.764 221.026 175.78 223.548 175.138 226.166V226.231H175.073L167.805 228.026L167.895 227.909C167.967 231.796 168.044 235.948 168.122 240.294L168.019 240.171L175.332 241.713H175.416V241.797C176.165 244.387 177.254 246.866 178.655 249.169L178.7 249.24L178.655 249.318C177.457 251.306 176.129 253.489 174.768 255.724V255.536L183.688 264.139H183.494L189.751 260.032L189.835 259.98L189.92 260.025C192.271 261.336 194.787 262.325 197.401 262.966H197.492V263.064C198.049 265.337 198.658 267.825 199.28 270.338L199.112 270.208L211.503 269.988L211.342 270.124C211.827 267.805 212.346 265.305 212.87 262.791V262.688H212.967C215.554 261.954 218.031 260.878 220.333 259.488L220.417 259.436L220.507 259.488L226.907 263.374H226.7L235.309 254.461V254.668C233.931 252.557 232.563 250.469 231.202 248.404L231.15 248.32L231.202 248.23C232.511 245.88 233.5 243.366 234.143 240.754V240.664H234.234L241.515 238.882L241.392 239.038C241.323 234.81 241.251 230.681 241.178 226.652L241.301 226.801L233.968 225.266H233.878V225.175C233.147 222.567 232.071 220.068 230.678 217.745L230.626 217.668L230.678 217.596C232.005 215.4 233.301 213.276 234.564 211.196V211.371L225.657 202.756H225.819L219.549 206.856L219.49 206.895L219.426 206.856C217.072 205.543 214.554 204.549 211.937 203.903H211.873V203.831C211.225 201.188 210.648 198.805 210.098 196.557L210.195 196.635L197.803 196.829L197.874 196.764C197.227 199.698 196.754 202.102 196.333 204.097V204.142C194.375 204.693 192.477 205.435 190.665 206.358C190.069 206.662 189.635 206.908 189.369 207.07C189.104 207.232 188.935 207.31 188.935 207.31L189.356 207.044C189.641 206.876 190.075 206.617 190.652 206.306C192.458 205.362 194.355 204.603 196.313 204.039L196.274 204.077C196.682 202.082 197.181 199.679 197.784 196.738V196.68H197.848L210.24 196.44H210.318V196.518C210.869 198.766 211.458 201.143 212.112 203.786L212.028 203.708C214.667 204.354 217.207 205.349 219.581 206.669H219.458L225.716 202.562L225.8 202.503L225.878 202.575L234.797 211.177L234.882 211.255L234.823 211.345L230.937 217.752V217.603C232.344 219.928 233.433 222.431 234.175 225.046L234.065 224.942L241.398 226.464H241.521V226.588C241.595 230.617 241.668 234.747 241.741 238.979V239.122L241.612 239.154L234.337 240.942L234.461 240.819C233.813 243.461 232.813 246.004 231.487 248.379V248.21C232.839 250.279 234.208 252.367 235.594 254.474L235.665 254.584L235.575 254.681L226.966 263.595L226.875 263.692L226.758 263.621L220.359 259.734H220.527C218.199 261.14 215.694 262.229 213.078 262.973L213.201 262.843C212.676 265.363 212.151 267.864 211.672 270.176V270.312H211.536L199.144 270.526H199.014L198.982 270.396L197.201 263.122L197.317 263.238C194.68 262.583 192.141 261.583 189.764 260.265H189.926L183.643 264.385L183.539 264.45L183.448 264.366L174.542 255.75L174.451 255.672L174.516 255.569L178.402 249.169V249.318C176.997 246.989 175.908 244.484 175.163 241.868L175.267 241.966L167.947 240.417H167.844V240.307C167.772 235.961 167.708 231.822 167.643 227.915V227.818H167.74L175.014 226.043L174.937 226.121C175.589 223.488 176.591 220.954 177.916 218.588V218.685L173.823 212.414L173.784 212.362L173.836 212.311L182.464 203.417V203.384H182.496L187.244 206.293L188.462 207.044L188.896 207.323Z" fill="#263238"/>
<path d="M326.354 251.332C324.903 250.393 305.554 246.37 305.554 246.37L258.914 247.588L242.208 250.665C242.208 250.665 239.112 302.487 239.572 303.439C240.032 304.391 274.422 303.808 275.335 304.735C276.249 305.661 308.002 309.081 308.002 309.081L337.392 256.346L326.354 251.332Z" fill="#AE7461"/>
<path d="M370.376 264.521C359.785 255.53 317.907 247.925 315.562 247.925C315.562 247.925 312.323 274.017 283.173 274.017C258.383 274.017 252.462 248.754 252.462 248.754L234.364 251.598C231.578 252.129 206.827 257.926 202.765 259.079C194.312 261.476 176.991 267.611 171.97 285.917C170.118 292.692 170.169 304.89 167.948 314.619H212.035C212.035 314.619 354.37 314.742 354.383 314.619L402.24 314.658C402.24 314.658 381.609 274.049 370.376 264.521Z" fill="#FF725E"/>
<path d="M206.82 314.736C206.73 314.736 204.877 309.91 202.636 303.893C200.394 297.875 198.678 292.965 198.749 292.932C198.82 292.9 200.692 297.752 202.934 303.776C205.175 309.8 206.904 314.704 206.82 314.736Z" fill="#263238"/>
<g opacity="0.3">
<path d="M264.679 314.762C266.675 306.205 268.903 297.72 269.486 288.353C269.491 286.751 269.736 285.16 270.211 283.631C271.377 280.56 274.636 278.286 274.746 275.002C274.823 271.563 270.859 268.997 267.504 269.645C264.148 270.293 261.596 273.299 260.449 276.544C259.303 279.789 259.277 283.3 259.154 286.74C258.791 295.472 252.469 306.257 250.48 314.762" fill="black"/>
</g>
<path d="M252.573 98.6589C237.616 102.274 223.578 116.738 217.301 130.536C211.025 144.333 210.681 157.386 212.599 172.375C213.758 181.444 216.304 190.688 217.956 199.336C219.672 208.34 215.365 220.945 210.467 228.732C208.602 231.672 206.114 234.853 207.008 238.202C207.831 241.305 211.245 242.983 214.399 243.805C220.909 245.493 227.769 245.252 234.144 243.112C233.863 245.332 233.582 247.551 233.301 249.771C250.331 249.428 266.733 243.805 282.798 238.247C288.181 236.388 293.81 234.361 297.586 230.176C299.666 227.864 301.045 225.039 302.36 222.241C307.65 210.967 312.332 199.418 316.385 187.643" fill="#263238"/>
<path d="M329.139 119.18C316.184 103.381 298.849 94.2864 278.438 93.9496C266.921 93.7552 262.16 96.152 253.862 98.3868C245.564 100.622 238.088 105.072 233.133 112.1C227.258 120.437 222.322 129.778 221.207 139.954C220.067 150.371 218.927 160.858 219.711 171.313C220.495 181.768 223.339 192.288 229.492 200.767L256.051 205.392C270.736 205.891 285.622 206.37 299.931 203.021C314.24 199.672 328.142 191.97 335.805 179.436C346.467 161.985 342.049 134.986 329.139 119.18Z" fill="#263238"/>
<path d="M305.457 119.005L270.011 104.916L260.748 105.992C239.909 106.069 225.535 129.046 225.399 145.927C225.25 164.673 225.807 187.572 228.78 201.396C234.772 229.185 258.493 231.498 258.493 231.498C258.493 231.498 258.007 246.306 257.845 255.64L312.122 251.721L314.849 128.528C314.763 126.052 313.749 123.699 312.01 121.935C310.27 120.171 307.931 119.126 305.457 119.005Z" fill="#AE7461"/>
<path d="M239.397 168.696C239.437 169.635 239.844 170.521 240.529 171.163C241.214 171.806 242.124 172.155 243.063 172.136C243.523 172.147 243.98 172.066 244.407 171.898C244.835 171.73 245.224 171.478 245.553 171.156C245.881 170.835 246.142 170.451 246.319 170.028C246.497 169.604 246.588 169.149 246.587 168.69C246.545 167.753 246.139 166.869 245.456 166.227C244.772 165.584 243.865 165.234 242.927 165.25C242.468 165.239 242.011 165.32 241.583 165.488C241.155 165.656 240.765 165.908 240.436 166.229C240.107 166.55 239.846 166.934 239.667 167.358C239.489 167.781 239.397 168.236 239.397 168.696Z" fill="#263238"/>
<path d="M231.326 159.672C231.798 160.1 234.493 158.053 238.451 157.897C242.409 157.742 245.402 159.472 245.81 158.999C246.011 158.791 245.505 158.001 244.203 157.191C242.413 156.142 240.354 155.642 238.283 155.753C236.247 155.815 234.277 156.493 232.634 157.697C231.429 158.649 231.053 159.478 231.326 159.672Z" fill="#263238"/>
<path d="M256.589 185.642C256.589 185.422 254.166 185.137 250.247 184.852C249.25 184.806 248.304 184.664 248.103 183.996C247.902 183.329 248.187 182.209 248.602 181.03L251.109 173.347C254.581 162.413 257.029 153.448 256.589 153.312C256.148 153.175 252.981 161.927 249.509 172.861C248.68 175.556 247.885 178.13 247.125 180.583C246.814 181.723 246.237 183.031 246.827 184.469C246.989 184.81 247.227 185.109 247.522 185.344C247.817 185.578 248.162 185.742 248.531 185.823C249.086 185.942 249.654 185.99 250.221 185.966C254.179 186.005 256.589 185.862 256.589 185.642Z" fill="#263238"/>
<path d="M258.448 231.465C258.448 231.465 277.376 231.647 295.442 219.391C295.442 219.391 286.509 239.375 258.305 238.293L258.448 231.465Z" fill="#6F4439"/>
<path d="M232.284 149.25C232.984 150.157 235.912 149.367 239.41 149.464C242.888 149.464 245.803 150.312 246.535 149.418C246.853 148.984 246.425 148.084 245.175 147.203C243.462 146.13 241.487 145.549 239.465 145.524C237.444 145.499 235.455 146.03 233.716 147.06C232.414 147.916 231.973 148.809 232.284 149.25Z" fill="#263238"/>
<path d="M284.203 167.867C284.228 168.805 283.886 169.716 283.25 170.405C282.613 171.095 281.733 171.509 280.796 171.559C280.339 171.604 279.877 171.556 279.438 171.419C278.999 171.283 278.592 171.06 278.241 170.763C277.89 170.467 277.601 170.103 277.393 169.694C277.184 169.284 277.059 168.837 277.026 168.379C277.001 167.441 277.343 166.53 277.979 165.84C278.616 165.151 279.496 164.737 280.433 164.686C280.891 164.641 281.353 164.688 281.792 164.824C282.231 164.961 282.639 165.184 282.99 165.48C283.342 165.777 283.63 166.141 283.838 166.551C284.047 166.961 284.171 167.408 284.203 167.867Z" fill="#263238"/>
<path d="M286.27 157.93C285.81 158.474 282.707 156.421 278.464 156.634C274.221 156.848 271.229 159.174 270.736 158.675C270.497 158.455 270.95 157.496 272.246 156.434C274.012 155.058 276.162 154.263 278.399 154.16C280.607 154.032 282.797 154.613 284.65 155.818C286.011 156.777 286.503 157.684 286.27 157.93Z" fill="#263238"/>
<path d="M280.511 144.346C279.766 145.24 276.76 144.379 273.165 144.398C269.57 144.307 266.539 145.104 265.82 144.197C265.502 143.757 265.968 142.863 267.283 142.008C269.081 140.945 271.142 140.411 273.23 140.466C275.311 140.448 277.355 141.025 279.118 142.131C280.407 143.012 280.841 143.899 280.511 144.346Z" fill="#263238"/>
<path d="M341.349 137.668C328.815 112.158 310.01 95.1543 276.404 93.9365L303.073 158.915C315.613 177.123 315.607 199.206 308.987 220.304C307.134 226.212 304.634 233.046 308.106 238.169C311.578 243.293 319.61 243.429 324.844 240.074C329.579 237.036 332.579 232.048 335.254 227.047C335.114 227.967 335.278 228.908 335.721 229.726C336.164 230.545 336.862 231.196 337.709 231.582C340.028 232.514 342.781 231.387 344.439 229.509C346.098 227.63 346.868 225.149 347.497 222.727C349.699 214.215 350.619 205.425 351.04 196.641C351.999 176.521 350.217 155.747 341.349 137.668Z" fill="#263238"/>
<path d="M310.017 175.64C309.907 173.548 312.051 168.515 314.091 168.061C319.552 166.902 329.502 166.766 330.357 180.777C331.536 199.88 312.109 197.12 312.038 196.576C311.986 196.149 310.393 182.85 310.017 175.64Z" fill="#AE7461"/>
<path d="M316.883 189.243C316.961 189.178 317.233 189.457 317.81 189.677C318.622 189.97 319.517 189.935 320.304 189.58C322.247 188.712 323.776 185.402 323.659 181.956C323.607 180.314 323.189 178.705 322.435 177.246C321.787 175.886 320.796 174.96 319.773 174.843C319.378 174.758 318.967 174.815 318.611 175.005C318.255 175.195 317.978 175.505 317.829 175.88C317.609 176.43 317.751 176.799 317.654 176.838C317.557 176.877 317.22 176.547 317.33 175.75C317.395 175.271 317.624 174.829 317.978 174.5C318.485 174.078 319.134 173.864 319.792 173.904C321.269 173.904 322.681 175.199 323.452 176.65C324.363 178.259 324.872 180.063 324.935 181.91C325.045 185.765 323.296 189.489 320.582 190.461C320.078 190.639 319.539 190.703 319.007 190.647C318.475 190.591 317.962 190.417 317.505 190.137C316.948 189.729 316.832 189.308 316.883 189.243Z" fill="#6F4439"/>
<path d="M314.888 168.113L310.023 173.943C264.232 146.316 248.096 102.857 250.383 105.856C250.383 105.856 264.744 99.9481 280.329 102.617C295.915 105.286 325.486 113.072 325.026 131.456C324.566 149.839 314.888 168.113 314.888 168.113Z" fill="#263238"/>
<path d="M253.745 194.639C253.097 194.93 252.793 197.036 252.994 197.878C253.079 198.249 253.253 198.593 253.5 198.883C253.747 199.173 254.06 199.399 254.412 199.543C255.041 199.746 255.713 199.772 256.356 199.62C257.95 199.312 259.506 198.827 260.994 198.176C262.574 197.528 264.809 196.045 266.351 195.241C263.87 193.985 260.676 193.466 258.04 193.162C257.103 192.986 256.135 193.154 255.313 193.635" fill="#6F4439"/>
<path d="M254.373 194.484C254.029 194.256 253.772 193.918 253.644 193.525C253.516 193.132 253.524 192.708 253.667 192.32C253.824 191.938 254.06 191.593 254.361 191.309C254.661 191.026 255.019 190.809 255.41 190.675C256.193 190.417 257.015 190.296 257.839 190.319C259.782 190.319 261.207 190.876 263.021 191.614C264.851 192.335 266.469 193.507 267.724 195.022C263.189 194.639 259.044 193.655 254.399 194.497" fill="#6F4439"/>
<path d="M253.382 198.96C253.343 198.999 253.039 198.831 252.734 198.312C252.554 197.905 252.459 197.465 252.453 197.02C252.447 196.575 252.532 196.133 252.702 195.721C252.969 195.13 253.37 194.61 253.874 194.201C254.378 193.793 254.97 193.508 255.604 193.37C257.055 193.034 258.556 192.975 260.028 193.195C262.632 193.483 265.201 194.025 267.698 194.814C269.641 195.417 270.749 195.903 270.71 196.032C270.671 196.162 269.46 195.929 267.517 195.507C265.014 194.934 262.482 194.502 259.931 194.212C258.575 194.007 257.193 194.029 255.844 194.277C255.33 194.365 254.842 194.564 254.413 194.861C253.985 195.157 253.626 195.544 253.363 195.993C253.051 196.649 252.969 197.39 253.13 198.099C253.259 198.623 253.441 198.876 253.382 198.96Z" fill="#263238"/>
<path d="M269.499 208.482C269.415 208.56 268.767 207.776 267.445 206.895C265.746 205.721 263.74 205.07 261.675 205.023C259.61 204.976 257.576 205.534 255.824 206.63C254.464 207.459 253.784 208.21 253.7 208.126C253.616 208.042 254.205 207.206 255.559 206.234C257.345 204.961 259.494 204.3 261.687 204.349C263.879 204.398 265.997 205.155 267.724 206.506C269.039 207.536 269.544 208.443 269.499 208.482Z" fill="#6F4439"/>
<path d="M316.741 206.358C320.458 206.358 323.471 203.344 323.471 199.627C323.471 195.91 320.458 192.897 316.741 192.897C313.024 192.897 310.01 195.91 310.01 199.627C310.01 203.344 313.024 206.358 316.741 206.358Z" fill="#455A64"/>
<path d="M252.087 98.659C251.724 99.689 269.473 95.9902 276.993 100.551C284.514 105.111 290.344 111.971 295.416 119.148C305.651 133.639 313.936 150.397 314.849 168.113C316.844 167.297 322.318 167.647 325 169.35C325 169.35 334.406 112.094 278.393 93.9497C278.419 93.9497 255.39 89.3117 252.087 98.659Z" fill="#455A64"/>
<path d="M256.938 95.0511C257.274 94.897 257.623 94.7734 257.981 94.6818C258.993 94.3606 260.028 94.118 261.077 93.9563C261.764 93.8851 262.522 93.7231 263.364 93.7102L264.66 93.6389H266.078C268.306 93.7316 270.519 94.0441 272.686 94.5717C278.308 96.032 283.618 98.5036 288.355 101.866C294.234 105.877 299.468 110.761 303.876 116.35C308.298 121.906 311.885 128.077 314.525 134.669C315.082 136.204 315.672 137.681 316.164 139.151C316.656 140.622 317.039 142.066 317.46 143.459L318.392 147.559C318.684 148.855 318.826 150.151 319.04 151.375C319.124 152.023 319.247 152.58 319.299 153.163C319.351 153.746 319.403 154.316 319.455 154.873C319.539 155.98 319.662 157.023 319.701 158.002C319.701 159.945 319.798 161.648 319.733 163.022C319.668 164.395 319.578 165.451 319.526 166.189C319.52 166.559 319.481 166.928 319.409 167.291C319.383 166.922 319.383 166.552 319.409 166.183C319.409 165.438 319.455 164.376 319.487 163.015C319.519 161.655 319.39 159.964 319.338 158.021C319.28 157.049 319.144 156.013 319.04 154.912C318.982 154.368 318.924 153.797 318.865 153.221C318.807 152.644 318.677 152.055 318.58 151.446C318.36 150.241 318.198 148.965 317.9 147.663C317.602 146.361 317.252 145.007 316.935 143.608C316.617 142.209 316.073 140.803 315.639 139.333C315.205 137.862 314.551 136.418 313.988 134.902C311.337 128.382 307.768 122.275 303.39 116.764C299.035 111.243 293.883 106.401 288.103 102.397C283.434 99.0505 278.207 96.5631 272.666 95.0511C270.544 94.5066 268.375 94.1661 266.188 94.0341L264.686 94.0211L263.39 94.06C262.554 94.06 261.803 94.196 261.123 94.2478C260.08 94.3834 259.046 94.5824 258.026 94.8438C257.669 94.9384 257.305 95.0076 256.938 95.0511Z" fill="#263238"/>
<path d="M257.152 314.516C257.152 314.516 262.134 295.148 264.122 287.186C264.594 285.293 264.687 283.325 264.394 281.395L263.87 277.917C265.904 277.561 266.759 277.165 268.624 275.578C269.295 275.665 269.976 275.536 270.569 275.21C271.162 274.884 271.636 274.378 271.922 273.765C272.725 272.197 273.729 269.541 274.7 267.067C276.475 262.532 277.097 256.236 277.097 256.236C277.097 256.236 280.148 250.542 279.967 248.126C279.785 245.71 278.075 241.752 278.075 241.752C278.075 241.752 278.509 237.865 277.784 236.278C276.676 233.823 273.839 232.534 270.892 233.357C268.378 234.056 256.051 236.544 256.051 236.544L253.752 234.147L253.156 225.557L260.119 223.148C260.119 223.148 264.654 225.143 267.964 223.886C269.132 223.48 270.153 222.736 270.898 221.749C271.03 221.56 271.12 221.345 271.161 221.119C271.202 220.893 271.194 220.66 271.137 220.437C271.079 220.215 270.975 220.007 270.829 219.828C270.684 219.65 270.502 219.505 270.296 219.404C267.4 217.966 260.735 214.746 258.584 214.539C255.811 214.267 245.097 219.423 244.236 221.017C244.054 221.34 242.739 240.262 242.739 240.262C240.977 242.276 239.963 244.836 239.87 247.51C239.87 251.721 238.801 283.138 238.801 283.138L223.034 314.503" fill="#AE7461"/>
<path d="M223.034 314.503C223.034 314.503 223.112 314.315 223.293 313.953L224.084 312.34C224.796 310.914 225.833 308.822 227.173 306.121L238.697 283.073V283.119C238.872 277.081 239.067 270.357 239.28 263.038C239.384 259.384 239.494 255.593 239.611 251.663C239.611 250.685 239.669 249.719 239.701 248.696C239.693 247.681 239.764 246.668 239.915 245.664C240.322 243.606 241.26 241.691 242.636 240.107L242.597 240.204C242.899 235.967 243.214 231.601 243.543 227.106C243.627 225.985 243.718 224.858 243.808 223.724C243.86 223.154 243.905 222.584 243.957 222.014C243.99 221.723 244.009 221.457 244.054 221.14C244.066 221.054 244.086 220.969 244.113 220.887L244.262 220.699C244.353 220.574 244.462 220.462 244.586 220.369C245.508 219.648 246.495 219.012 247.533 218.471C248.556 217.901 249.612 217.389 250.681 216.884C252.834 215.854 255.09 215.058 257.411 214.507C258.02 214.361 258.655 214.361 259.264 214.507C259.857 214.656 260.441 214.84 261.013 215.057C262.16 215.478 263.287 215.951 264.407 216.443C265.528 216.936 266.642 217.46 267.756 217.992L269.428 218.801L270.257 219.209C270.571 219.348 270.841 219.573 271.034 219.857C271.235 220.139 271.348 220.475 271.356 220.822C271.364 221.168 271.267 221.509 271.079 221.801C270.71 222.33 270.252 222.792 269.726 223.167C269.201 223.539 268.63 223.842 268.028 224.068C267.421 224.285 266.787 224.42 266.143 224.469C265.097 224.533 264.046 224.452 263.021 224.23C262.004 224.023 261.009 223.722 260.048 223.329H260.171L253.214 225.739L253.35 225.519C253.553 228.412 253.749 231.275 253.939 234.108L253.894 234.005L256.194 236.401L256.045 236.356C260.981 235.339 265.832 234.413 270.509 233.266C271.68 232.892 272.928 232.83 274.13 233.085C275.321 233.367 276.39 234.023 277.181 234.957C277.573 235.421 277.877 235.952 278.082 236.524C278.241 237.095 278.334 237.682 278.36 238.273C278.414 239.429 278.379 240.588 278.257 241.739V241.661C278.772 242.879 279.22 244.125 279.598 245.392C279.788 246.02 279.942 246.658 280.058 247.303C280.184 247.945 280.184 248.605 280.058 249.247C279.78 250.494 279.381 251.711 278.866 252.881C278.373 254.04 277.836 255.154 277.266 256.249V256.197C276.995 258.704 276.549 261.189 275.931 263.634C275.289 265.938 274.491 268.195 273.541 270.39C273.107 271.465 272.673 272.528 272.174 273.545C271.933 274.069 271.585 274.537 271.151 274.918C270.714 275.292 270.183 275.538 269.615 275.63C269.335 275.677 269.05 275.688 268.767 275.663H268.663H268.76L268.722 275.695L268.566 275.825L268.249 276.084C267.84 276.426 267.407 276.738 266.953 277.017C266.036 277.537 265.026 277.874 263.98 278.008L264.071 277.878C264.278 279.323 264.517 280.715 264.718 282.108C264.85 283.461 264.797 284.825 264.563 286.163C264.31 287.459 263.915 288.676 263.649 289.881L262.762 293.347C261.609 297.817 260.624 301.658 259.815 304.793L257.949 311.99C257.729 312.806 257.567 313.428 257.457 313.855C257.347 314.283 257.275 314.503 257.275 314.503C257.275 314.503 257.321 314.283 257.424 313.855L257.884 311.983L259.692 304.767C260.482 301.625 261.454 297.784 262.581 293.315C262.866 292.192 263.159 291.034 263.462 289.842C263.747 288.644 264.109 287.413 264.356 286.137C264.586 284.816 264.633 283.469 264.498 282.134C264.33 280.767 264.083 279.362 263.85 277.917V277.807H263.96C264.979 277.672 265.962 277.342 266.856 276.835C267.309 276.559 267.741 276.252 268.152 275.915L268.456 275.663L268.611 275.533H268.65L268.754 275.501H268.871C269.13 275.526 269.391 275.515 269.648 275.468C270.175 275.37 270.669 275.14 271.085 274.801C271.5 274.461 271.824 274.022 272.025 273.525C272.517 272.521 272.945 271.465 273.373 270.39C274.316 268.206 275.109 265.959 275.743 263.666C276.341 261.23 276.774 258.756 277.039 256.262C277.609 255.18 278.14 254.06 278.626 252.913C279.135 251.766 279.528 250.57 279.798 249.344C279.918 248.728 279.918 248.094 279.798 247.478C279.682 246.846 279.53 246.221 279.345 245.606C278.971 244.349 278.525 243.114 278.011 241.907V241.868V241.713C278.134 240.579 278.166 239.438 278.108 238.299C278.088 237.731 277.999 237.168 277.842 236.622C277.651 236.091 277.368 235.597 277.007 235.164C276.256 234.284 275.243 233.667 274.117 233.402C272.966 233.157 271.77 233.222 270.652 233.59C265.956 234.711 261.117 235.669 256.174 236.686H256.084L256.019 236.622L253.719 234.218L253.68 234.179V234.115C253.486 231.282 253.289 228.421 253.091 225.532V225.402L253.214 225.363L260.171 222.947H260.229H260.294C262.166 223.752 264.192 224.132 266.228 224.061C266.838 224.013 267.439 223.885 268.015 223.679C268.59 223.466 269.135 223.178 269.635 222.824C270.139 222.471 270.577 222.032 270.93 221.528C271.083 221.293 271.161 221.017 271.155 220.736C271.15 220.456 271.06 220.184 270.898 219.954C270.736 219.724 270.511 219.544 270.25 219.436L269.421 219.022L267.601 218.283C266.493 217.752 265.379 217.234 264.265 216.741C263.151 216.249 262.03 215.77 260.896 215.355C259.763 214.941 258.616 214.507 257.463 214.798C255.165 215.362 252.933 216.167 250.804 217.201C249.742 217.707 248.686 218.212 247.669 218.775C246.653 219.305 245.688 219.927 244.786 220.635C244.678 220.712 244.581 220.806 244.501 220.913L244.378 221.062C244.375 221.118 244.375 221.174 244.378 221.23C244.346 221.483 244.313 221.788 244.288 222.066C244.236 222.636 244.184 223.2 244.139 223.77C244.048 224.905 243.957 226.033 243.867 227.151C243.536 231.634 243.219 236.006 242.908 240.243V240.294L242.869 240.34C241.527 241.875 240.611 243.736 240.213 245.736C240.067 246.722 239.996 247.718 239.999 248.715C239.999 249.713 239.941 250.704 239.909 251.682C239.792 255.616 239.675 259.41 239.559 263.064C239.332 270.364 239.118 277.088 238.911 283.145C233.982 292.906 230.03 300.744 227.297 306.147C225.936 308.842 224.874 310.921 224.155 312.34C223.799 313.039 223.507 313.577 223.332 313.94C223.157 314.302 223.034 314.503 223.034 314.503Z" fill="#6F4439"/>
<path d="M263.759 277.923C264.52 277.778 265.261 277.546 265.968 277.23C266.78 276.831 267.516 276.294 268.145 275.643C268.976 274.773 269.73 273.832 270.399 272.832C271.96 270.655 273.165 267.65 274.35 264.333C275.065 262.632 275.503 260.828 275.646 258.989C275.679 258.029 275.486 257.075 275.082 256.204C274.63 255.32 273.961 254.564 273.139 254.008C271.473 252.943 269.566 252.315 267.594 252.181C265.69 251.974 263.811 251.935 262.043 251.585C260.391 251.213 258.788 250.648 257.269 249.901C255.959 249.27 254.557 248.85 253.116 248.657C252.491 248.598 251.861 248.629 251.244 248.748C250.696 248.876 250.16 249.054 249.644 249.279C248.812 249.635 248.024 250.09 247.299 250.633C246.837 250.968 246.447 251.393 246.153 251.883C246.08 252.011 246.023 252.148 245.984 252.291C245.984 252.388 245.939 252.44 245.939 252.44C245.932 252.388 245.932 252.336 245.939 252.285C245.96 252.133 246.006 251.987 246.075 251.851C246.354 251.343 246.738 250.901 247.202 250.555C247.923 249.985 248.713 249.509 249.554 249.136C250.078 248.893 250.625 248.7 251.186 248.56C251.825 248.427 252.48 248.39 253.129 248.45C254.6 248.624 256.033 249.036 257.372 249.668C258.877 250.397 260.462 250.947 262.095 251.306C263.831 251.637 265.696 251.669 267.627 251.883C269.655 252.014 271.617 252.661 273.327 253.761C274.193 254.348 274.891 255.149 275.354 256.087C275.783 257.004 275.987 258.01 275.95 259.021C275.815 260.895 275.377 262.735 274.655 264.469C273.456 267.805 272.213 270.804 270.606 273C269.919 274.001 269.146 274.94 268.294 275.805C267.639 276.459 266.873 276.992 266.033 277.379C265.502 277.612 264.945 277.782 264.375 277.884L263.921 277.943C263.867 277.943 263.812 277.937 263.759 277.923Z" fill="#6F4439"/>
<path d="M264.103 279.53C263.854 278.817 263.649 278.09 263.487 277.353C263.131 276.006 262.593 274.153 261.9 272.171C261.207 270.189 260.514 268.362 260.009 267.054C259.703 266.361 259.449 265.647 259.251 264.916C259.629 265.572 259.956 266.257 260.229 266.963C260.793 268.259 261.525 270.033 262.224 272.061C262.817 273.788 263.316 275.546 263.721 277.327C263.87 278.014 263.98 278.571 264.038 278.953C264.088 279.141 264.11 279.335 264.103 279.53Z" fill="#6F4439"/>
<path d="M258.694 264.994C258.795 265.012 258.898 265.012 258.998 264.994C259.131 264.929 259.249 264.839 259.346 264.727C259.443 264.616 259.516 264.486 259.562 264.346C259.784 263.936 259.958 263.501 260.08 263.05C260.249 262.48 260.249 261.872 260.08 261.301L259.989 261.016L260.268 261.126C261.946 261.755 263.656 262.294 265.392 262.739L265.962 262.895L266.227 262.966L266.04 263.173C265.666 263.588 265.404 264.091 265.278 264.635C265.152 265.179 265.167 265.746 265.321 266.283L265.359 266.412L265.236 266.471C263.991 267.056 262.981 268.047 262.373 269.282C262.158 269.77 261.97 270.27 261.81 270.778C261.801 270.635 261.814 270.49 261.849 270.351C261.92 269.956 262.04 269.571 262.205 269.204C262.783 267.887 263.812 266.819 265.107 266.192L265.029 266.373C264.849 265.784 264.824 265.158 264.958 264.556C265.092 263.954 265.38 263.397 265.793 262.94L265.871 263.219L265.301 263.063C263.554 262.619 261.837 262.058 260.164 261.386L260.352 261.217C260.526 261.84 260.512 262.5 260.313 263.115C260.172 263.571 259.971 264.006 259.717 264.411C259.657 264.561 259.564 264.696 259.447 264.808C259.33 264.92 259.19 265.005 259.037 265.058C258.791 265.091 258.687 265.033 258.694 264.994Z" fill="#6F4439"/>
<path d="M243.834 245.949C243.922 245.828 244.025 245.717 244.139 245.619C244.455 245.328 244.805 245.075 245.181 244.867C246.59 244.154 248.138 243.758 249.716 243.708C253.693 243.507 259.167 243.39 265.23 243.209C266.746 243.209 268.216 243.112 269.661 243.125C271.066 243.09 272.458 243.392 273.722 244.006C274.831 244.64 275.732 245.583 276.313 246.72C276.824 247.695 277.16 248.751 277.304 249.842C277.478 251.412 277.443 252.998 277.201 254.558C277.13 255.109 277.058 255.53 277.013 255.821C276.992 255.97 276.962 256.117 276.922 256.262C276.905 256.113 276.905 255.963 276.922 255.815C276.961 255.484 277 255.063 277.052 254.519C277.243 252.97 277.243 251.404 277.052 249.855C276.899 248.796 276.562 247.772 276.054 246.83C275.488 245.742 274.617 244.841 273.547 244.239C272.334 243.663 271.003 243.381 269.661 243.416C268.242 243.416 266.759 243.481 265.243 243.513C259.193 243.688 253.693 243.773 249.735 243.909C248.167 243.927 246.621 244.281 245.201 244.945C244.712 245.231 244.254 245.568 243.834 245.949Z" fill="#6F4439"/>
<path d="M267.478 234.121C267.665 234.066 267.859 234.035 268.054 234.03C268.581 233.97 269.114 233.97 269.641 234.03C271.396 234.273 273.041 235.023 274.376 236.187C275.709 237.336 276.795 238.741 277.57 240.32C277.709 240.586 277.835 240.858 277.946 241.136C278.04 241.348 278.122 241.564 278.192 241.784C278.268 241.964 278.318 242.154 278.341 242.348C278.282 242.348 278.004 241.59 277.363 240.437C276.542 238.929 275.458 237.58 274.163 236.453C272.874 235.333 271.308 234.579 269.628 234.27C268.313 234.082 267.484 234.199 267.478 234.121Z" fill="#6F4439"/>
<path d="M242.739 240.204C242.739 240.204 242.875 240.035 243.173 239.782C243.594 239.427 244.047 239.113 244.527 238.843C245.241 238.441 245.994 238.113 246.775 237.865C247.734 237.58 248.713 237.363 249.703 237.217C251.801 236.913 253.699 236.77 255.06 236.57C256.42 236.369 257.262 236.2 257.275 236.252C257.097 236.347 256.904 236.413 256.705 236.446C256.329 236.557 255.785 236.673 255.099 236.809C253.738 237.068 251.86 237.256 249.748 237.561C248.775 237.7 247.812 237.904 246.865 238.17C246.099 238.397 245.356 238.695 244.644 239.057C243.432 239.692 242.778 240.255 242.739 240.204Z" fill="#6F4439"/>
<path d="M28.67 34.15V55H25.25V34.15H28.67ZM36.5802 32.8V55H33.1602V32.8H36.5802ZM44.4903 32.8V55H41.0703V32.8H44.4903ZM63.9505 38.47V55H60.5305V53.05C59.9905 53.73 59.2805 54.27 58.4005 54.67C57.5405 55.05 56.6205 55.24 55.6405 55.24C54.3405 55.24 53.1705 54.97 52.1305 54.43C51.1105 53.89 50.3005 53.09 49.7005 52.03C49.1205 50.97 48.8305 49.69 48.8305 48.19V38.47H52.2205V47.68C52.2205 49.16 52.5905 50.3 53.3305 51.1C54.0705 51.88 55.0805 52.27 56.3605 52.27C57.6405 52.27 58.6505 51.88 59.3905 51.1C60.1505 50.3 60.5305 49.16 60.5305 47.68V38.47H63.9505ZM74.4629 55.27C73.1629 55.27 71.9929 55.04 70.9529 54.58C69.9329 54.1 69.1229 53.46 68.5229 52.66C67.9229 51.84 67.6029 50.93 67.5629 49.93H71.1029C71.1629 50.63 71.4929 51.22 72.0929 51.7C72.7129 52.16 73.4829 52.39 74.4029 52.39C75.3629 52.39 76.1029 52.21 76.6229 51.85C77.1629 51.47 77.4329 50.99 77.4329 50.41C77.4329 49.79 77.1329 49.33 76.5329 49.03C75.9529 48.73 75.0229 48.4 73.7429 48.04C72.5029 47.7 71.4929 47.37 70.7129 47.05C69.9329 46.73 69.2529 46.24 68.6729 45.58C68.1129 44.92 67.8329 44.05 67.8329 42.97C67.8329 42.09 68.0929 41.29 68.6129 40.57C69.1329 39.83 69.8729 39.25 70.8329 38.83C71.8129 38.41 72.9329 38.2 74.1929 38.2C76.0729 38.2 77.5829 38.68 78.7229 39.64C79.8829 40.58 80.5029 41.87 80.5829 43.51H77.1629C77.1029 42.77 76.8029 42.18 76.2629 41.74C75.7229 41.3 74.9929 41.08 74.0729 41.08C73.1729 41.08 72.4829 41.25 72.0029 41.59C71.5229 41.93 71.2829 42.38 71.2829 42.94C71.2829 43.38 71.4429 43.75 71.7629 44.05C72.0829 44.35 72.4729 44.59 72.9329 44.77C73.3929 44.93 74.0729 45.14 74.9729 45.4C76.1729 45.72 77.1529 46.05 77.9129 46.39C78.6929 46.71 79.3629 47.19 79.9229 47.83C80.4829 48.47 80.7729 49.32 80.7929 50.38C80.7929 51.32 80.5329 52.16 80.0129 52.9C79.4929 53.64 78.7529 54.22 77.7929 54.64C76.8529 55.06 75.7429 55.27 74.4629 55.27ZM88.4783 41.26V50.41C88.4783 51.03 88.6183 51.48 88.8983 51.76C89.1983 52.02 89.6983 52.15 90.3983 52.15H92.4983V55H89.7983C88.2583 55 87.0783 54.64 86.2583 53.92C85.4383 53.2 85.0283 52.03 85.0283 50.41V41.26H83.0783V38.47H85.0283V34.36H88.4783V38.47H92.4983V41.26H88.4783ZM99.0704 40.87C99.5704 40.03 100.23 39.38 101.05 38.92C101.89 38.44 102.88 38.2 104.02 38.2V41.74H103.15C101.81 41.74 100.79 42.08 100.09 42.76C99.4104 43.44 99.0704 44.62 99.0704 46.3V55H95.6504V38.47H99.0704V40.87ZM106.024 46.66C106.024 45 106.364 43.53 107.044 42.25C107.744 40.97 108.684 39.98 109.864 39.28C111.064 38.56 112.384 38.2 113.824 38.2C115.124 38.2 116.254 38.46 117.214 38.98C118.194 39.48 118.974 40.11 119.554 40.87V38.47H123.004V55H119.554V52.54C118.974 53.32 118.184 53.97 117.184 54.49C116.184 55.01 115.044 55.27 113.764 55.27C112.344 55.27 111.044 54.91 109.864 54.19C108.684 53.45 107.744 52.43 107.044 51.13C106.364 49.81 106.024 48.32 106.024 46.66ZM119.554 46.72C119.554 45.58 119.314 44.59 118.834 43.75C118.374 42.91 117.764 42.27 117.004 41.83C116.244 41.39 115.424 41.17 114.544 41.17C113.664 41.17 112.844 41.39 112.084 41.83C111.324 42.25 110.704 42.88 110.224 43.72C109.764 44.54 109.534 45.52 109.534 46.66C109.534 47.8 109.764 48.8 110.224 49.66C110.704 50.52 111.324 51.18 112.084 51.64C112.864 52.08 113.684 52.3 114.544 52.3C115.424 52.3 116.244 52.08 117.004 51.64C117.764 51.2 118.374 50.56 118.834 49.72C119.314 48.86 119.554 47.86 119.554 46.72ZM131.486 41.26V50.41C131.486 51.03 131.626 51.48 131.906 51.76C132.206 52.02 132.706 52.15 133.406 52.15H135.506V55H132.806C131.266 55 130.086 54.64 129.266 53.92C128.446 53.2 128.036 52.03 128.036 50.41V41.26H126.086V38.47H128.036V34.36H131.486V38.47H135.506V41.26H131.486ZM140.398 36.28C139.778 36.28 139.258 36.07 138.838 35.65C138.418 35.23 138.208 34.71 138.208 34.09C138.208 33.47 138.418 32.95 138.838 32.53C139.258 32.11 139.778 31.9 140.398 31.9C140.998 31.9 141.508 32.11 141.928 32.53C142.348 32.95 142.558 33.47 142.558 34.09C142.558 34.71 142.348 35.23 141.928 35.65C141.508 36.07 140.998 36.28 140.398 36.28ZM142.078 38.47V55H138.658V38.47H142.078ZM153.738 55.27C152.178 55.27 150.768 54.92 149.508 54.22C148.248 53.5 147.258 52.5 146.538 51.22C145.818 49.92 145.458 48.42 145.458 46.72C145.458 45.04 145.828 43.55 146.568 42.25C147.308 40.95 148.318 39.95 149.598 39.25C150.878 38.55 152.308 38.2 153.888 38.2C155.468 38.2 156.898 38.55 158.178 39.25C159.458 39.95 160.468 40.95 161.208 42.25C161.948 43.55 162.318 45.04 162.318 46.72C162.318 48.4 161.938 49.89 161.178 51.19C160.418 52.49 159.378 53.5 158.058 54.22C156.758 54.92 155.318 55.27 153.738 55.27ZM153.738 52.3C154.618 52.3 155.438 52.09 156.198 51.67C156.978 51.25 157.608 50.62 158.088 49.78C158.568 48.94 158.808 47.92 158.808 46.72C158.808 45.52 158.578 44.51 158.118 43.69C157.658 42.85 157.048 42.22 156.288 41.8C155.528 41.38 154.708 41.17 153.828 41.17C152.948 41.17 152.128 41.38 151.368 41.8C150.628 42.22 150.038 42.85 149.598 43.69C149.158 44.51 148.938 45.52 148.938 46.72C148.938 48.5 149.388 49.88 150.288 50.86C151.208 51.82 152.358 52.3 153.738 52.3ZM174.039 38.2C175.339 38.2 176.499 38.47 177.519 39.01C178.559 39.55 179.369 40.35 179.949 41.41C180.529 42.47 180.819 43.75 180.819 45.25V55H177.429V45.76C177.429 44.28 177.059 43.15 176.319 42.37C175.579 41.57 174.569 41.17 173.289 41.17C172.009 41.17 170.989 41.57 170.229 42.37C169.489 43.15 169.119 44.28 169.119 45.76V55H165.699V38.47H169.119V40.36C169.679 39.68 170.389 39.15 171.249 38.77C172.129 38.39 173.059 38.2 174.039 38.2ZM47.45 68.47L42.32 85H38.72L35.39 72.79L32.06 85H28.46L23.3 68.47H26.78L30.23 81.76L33.74 68.47H37.31L40.67 81.7L44.09 68.47H47.45ZM51.7459 66.28C51.1259 66.28 50.6059 66.07 50.1859 65.65C49.7659 65.23 49.5559 64.71 49.5559 64.09C49.5559 63.47 49.7659 62.95 50.1859 62.53C50.6059 62.11 51.1259 61.9 51.7459 61.9C52.3459 61.9 52.8559 62.11 53.2759 62.53C53.6959 62.95 53.9059 63.47 53.9059 64.09C53.9059 64.71 53.6959 65.23 53.2759 65.65C52.8559 66.07 52.3459 66.28 51.7459 66.28ZM53.4259 68.47V85H50.0059V68.47H53.4259ZM61.906 71.26V80.41C61.906 81.03 62.046 81.48 62.326 81.76C62.626 82.02 63.126 82.15 63.826 82.15H65.926V85H63.226C61.686 85 60.506 84.64 59.686 83.92C58.866 83.2 58.456 82.03 58.456 80.41V71.26H56.506V68.47H58.456V64.36H61.906V68.47H65.926V71.26H61.906ZM77.6281 68.2C78.8881 68.2 80.0081 68.47 80.9881 69.01C81.9881 69.55 82.7681 70.35 83.3281 71.41C83.9081 72.47 84.1981 73.75 84.1981 75.25V85H80.8081V75.76C80.8081 74.28 80.4381 73.15 79.6981 72.37C78.9581 71.57 77.9481 71.17 76.6681 71.17C75.3881 71.17 74.3681 71.57 73.6081 72.37C72.8681 73.15 72.4981 74.28 72.4981 75.76V85H69.0781V62.8H72.4981V70.39C73.0781 69.69 73.8081 69.15 74.6881 68.77C75.5881 68.39 76.5681 68.2 77.6281 68.2ZM107.514 74.29C108.634 74.49 109.584 75.08 110.364 76.06C111.144 77.04 111.534 78.15 111.534 79.39C111.534 80.45 111.254 81.41 110.694 82.27C110.154 83.11 109.364 83.78 108.324 84.28C107.284 84.76 106.074 85 104.694 85H96.3535V64.15H104.304C105.724 64.15 106.944 64.39 107.964 64.87C108.984 65.35 109.754 66 110.274 66.82C110.794 67.62 111.054 68.52 111.054 69.52C111.054 70.72 110.734 71.72 110.094 72.52C109.454 73.32 108.594 73.91 107.514 74.29ZM99.7735 72.91H104.004C105.124 72.91 105.994 72.66 106.614 72.16C107.254 71.64 107.574 70.9 107.574 69.94C107.574 69 107.254 68.27 106.614 67.75C105.994 67.21 105.124 66.94 104.004 66.94H99.7735V72.91ZM104.394 82.21C105.554 82.21 106.464 81.93 107.124 81.37C107.784 80.81 108.114 80.03 108.114 79.03C108.114 78.01 107.764 77.2 107.064 76.6C106.364 76 105.434 75.7 104.274 75.7H99.7735V82.21H104.394ZM118.67 62.8V85H115.25V62.8H118.67ZM130.33 85.27C128.77 85.27 127.36 84.92 126.1 84.22C124.84 83.5 123.85 82.5 123.13 81.22C122.41 79.92 122.05 78.42 122.05 76.72C122.05 75.04 122.42 73.55 123.16 72.25C123.9 70.95 124.91 69.95 126.19 69.25C127.47 68.55 128.9 68.2 130.48 68.2C132.06 68.2 133.49 68.55 134.77 69.25C136.05 69.95 137.06 70.95 137.8 72.25C138.54 73.55 138.91 75.04 138.91 76.72C138.91 78.4 138.53 79.89 137.77 81.19C137.01 82.49 135.97 83.5 134.65 84.22C133.35 84.92 131.91 85.27 130.33 85.27ZM130.33 82.3C131.21 82.3 132.03 82.09 132.79 81.67C133.57 81.25 134.2 80.62 134.68 79.78C135.16 78.94 135.4 77.92 135.4 76.72C135.4 75.52 135.17 74.51 134.71 73.69C134.25 72.85 133.64 72.22 132.88 71.8C132.12 71.38 131.3 71.17 130.42 71.17C129.54 71.17 128.72 71.38 127.96 71.8C127.22 72.22 126.63 72.85 126.19 73.69C125.75 74.51 125.53 75.52 125.53 76.72C125.53 78.5 125.98 79.88 126.88 80.86C127.8 81.82 128.95 82.3 130.33 82.3ZM141.151 76.72C141.151 75.02 141.491 73.53 142.171 72.25C142.871 70.95 143.831 69.95 145.051 69.25C146.271 68.55 147.671 68.2 149.251 68.2C151.251 68.2 152.901 68.68 154.201 69.64C155.521 70.58 156.411 71.93 156.871 73.69H153.181C152.881 72.87 152.401 72.23 151.741 71.77C151.081 71.31 150.251 71.08 149.251 71.08C147.851 71.08 146.731 71.58 145.891 72.58C145.071 73.56 144.661 74.94 144.661 76.72C144.661 78.5 145.071 79.89 145.891 80.89C146.731 81.89 147.851 82.39 149.251 82.39C151.231 82.39 152.541 81.52 153.181 79.78H156.871C156.391 81.46 155.491 82.8 154.171 83.8C152.851 84.78 151.211 85.27 149.251 85.27C147.671 85.27 146.271 84.92 145.051 84.22C143.831 83.5 142.871 82.5 142.171 81.22C141.491 79.92 141.151 78.42 141.151 76.72ZM166.819 76.75L174.439 85H169.819L163.699 77.89V85H160.279V62.8H163.699V75.7L169.699 68.47H174.439L166.819 76.75ZM175.751 76.72C175.751 75.02 176.091 73.53 176.771 72.25C177.471 70.95 178.431 69.95 179.651 69.25C180.871 68.55 182.271 68.2 183.851 68.2C185.851 68.2 187.501 68.68 188.801 69.64C190.121 70.58 191.011 71.93 191.471 73.69H187.781C187.481 72.87 187.001 72.23 186.341 71.77C185.681 71.31 184.851 71.08 183.851 71.08C182.451 71.08 181.331 71.58 180.491 72.58C179.671 73.56 179.261 74.94 179.261 76.72C179.261 78.5 179.671 79.89 180.491 80.89C181.331 81.89 182.451 82.39 183.851 82.39C185.831 82.39 187.141 81.52 187.781 79.78H191.471C190.991 81.46 190.091 82.8 188.771 83.8C187.451 84.78 185.811 85.27 183.851 85.27C182.271 85.27 180.871 84.92 179.651 84.22C178.431 83.5 177.471 82.5 176.771 81.22C176.091 79.92 175.751 78.42 175.751 76.72ZM203.429 68.2C204.689 68.2 205.809 68.47 206.789 69.01C207.789 69.55 208.569 70.35 209.129 71.41C209.709 72.47 209.999 73.75 209.999 75.25V85H206.609V75.76C206.609 74.28 206.239 73.15 205.499 72.37C204.759 71.57 203.749 71.17 202.469 71.17C201.189 71.17 200.169 71.57 199.409 72.37C198.669 73.15 198.299 74.28 198.299 75.76V85H194.879V62.8H198.299V70.39C198.879 69.69 199.609 69.15 200.489 68.77C201.389 68.39 202.369 68.2 203.429 68.2ZM213.221 76.66C213.221 75 213.561 73.53 214.241 72.25C214.941 70.97 215.881 69.98 217.061 69.28C218.261 68.56 219.581 68.2 221.021 68.2C222.321 68.2 223.451 68.46 224.411 68.98C225.391 69.48 226.171 70.11 226.751 70.87V68.47H230.201V85H226.751V82.54C226.171 83.32 225.381 83.97 224.381 84.49C223.381 85.01 222.241 85.27 220.961 85.27C219.541 85.27 218.241 84.91 217.061 84.19C215.881 83.45 214.941 82.43 214.241 81.13C213.561 79.81 213.221 78.32 213.221 76.66ZM226.751 76.72C226.751 75.58 226.511 74.59 226.031 73.75C225.571 72.91 224.961 72.27 224.201 71.83C223.441 71.39 222.621 71.17 221.741 71.17C220.861 71.17 220.041 71.39 219.281 71.83C218.521 72.25 217.901 72.88 217.421 73.72C216.961 74.54 216.731 75.52 216.731 76.66C216.731 77.8 216.961 78.8 217.421 79.66C217.901 80.52 218.521 81.18 219.281 81.64C220.061 82.08 220.881 82.3 221.741 82.3C222.621 82.3 223.441 82.08 224.201 81.64C224.961 81.2 225.571 80.56 226.031 79.72C226.511 78.86 226.751 77.86 226.751 76.72ZM236.433 66.28C235.813 66.28 235.293 66.07 234.873 65.65C234.453 65.23 234.243 64.71 234.243 64.09C234.243 63.47 234.453 62.95 234.873 62.53C235.293 62.11 235.813 61.9 236.433 61.9C237.033 61.9 237.543 62.11 237.963 62.53C238.383 62.95 238.593 63.47 238.593 64.09C238.593 64.71 238.383 65.23 237.963 65.65C237.543 66.07 237.033 66.28 236.433 66.28ZM238.113 68.47V85H234.693V68.47H238.113ZM250.944 68.2C252.244 68.2 253.404 68.47 254.424 69.01C255.464 69.55 256.274 70.35 256.854 71.41C257.434 72.47 257.724 73.75 257.724 75.25V85H254.334V75.76C254.334 74.28 253.964 73.15 253.224 72.37C252.484 71.57 251.474 71.17 250.194 71.17C248.914 71.17 247.894 71.57 247.134 72.37C246.394 73.15 246.024 74.28 246.024 75.76V85H242.604V68.47H246.024V70.36C246.584 69.68 247.294 69.15 248.154 68.77C249.034 68.39 249.964 68.2 250.944 68.2Z" fill="black"/>
<path d="M118.636 147.44L39.7225 124.197L36.4748 135.602L115.168 159.237L118.636 147.44Z" fill="#FFA589"/>
<path d="M38.74 151.618L67.7554 159.191L60.841 183.636L30.729 175.482L38.74 151.618Z" fill="#75BC7B"/>
<path d="M36.4748 135.602L39.7225 124.197L118.636 147.44L115.168 159.237M36.4748 135.602L22.5562 184.481L101.174 206.833L115.168 159.237M36.4748 135.602L115.168 159.237M38.74 151.618L67.7554 159.191L60.841 183.636L30.729 175.482L38.74 151.618Z" stroke="white"/>
<path d="M47.6887 163.084L38.1343 161.707L46.6712 170.146" stroke="black"/>
<path d="M51.1917 162.317L49.815 171.871" stroke="black"/>
<path d="M53.5643 163.506L62.1049 168.977L53.6135 171.994" stroke="black"/>
<line x1="74.361" y1="160.914" x2="103.672" y2="169.378" stroke="white"/>
<line x1="73.0442" y1="170.053" x2="102.355" y2="178.517" stroke="white"/>
<line x1="71.0164" y1="178.242" x2="100.327" y2="186.705" stroke="white"/>
<line x1="68.1577" y1="186.31" x2="97.4688" y2="194.774" stroke="white"/>
<line x1="42.2398" y1="130.846" x2="47.1051" y2="132.395" stroke="black"/>
<line x1="50.3087" y1="133.705" x2="55.1739" y2="135.254" stroke="black"/>
<line x1="58.3774" y1="136.563" x2="63.2426" y2="138.113" stroke="black"/>
</g>
<defs>
<clipPath id="clip0_38_16">
<rect width="340" height="306" rx="50" fill="white"/>
</clipPath>
</defs>
</svg>
