<svg width="390" height="844" viewBox="0 0 390 844" fill="none" xmlns="http://www.w3.org/2000/svg">
<rect width="390" height="844" rx="60" fill="#0E0E0E"/>
<path d="M71 233C79.0909 220.909 82.0337 213.68 84.5 200C113.785 204.903 130.456 207.227 161 210C156.927 225.166 153.235 233.515 143 248C132.956 260.279 128.598 267.745 124 282.5L50 271.5C50.9948 258.755 55.7631 250.27 71 233Z" stroke="#EBEBEB" stroke-width="1.5"/>
<path d="M88 258C96.0909 245.909 99.0337 238.68 101.5 225C130.785 229.903 147.456 232.227 178 235C173.927 250.166 170.235 258.515 160 273C149.956 285.279 145.598 292.745 141 307.5L67 296.5C67.9948 283.755 72.7631 275.27 88 258Z" stroke="#2C2C2C" stroke-width="1.5"/>
<path fill-rule="evenodd" clip-rule="evenodd" d="M116 247.691L126 234.191L132 244.191L116 247.691Z" fill="#FFA489"/>
<path d="M175 204.191L126 234.191L132 244.191L184 215.191C184 215.191 177.82 216.691 175 212.691C172.18 208.691 175 204.191 175 204.191Z" fill="#75BC7B"/>
<path d="M126 234.191L116 247.691L132 244.191M126 234.191L175 204.191M126 234.191L132 244.191M175 204.191C175 204.191 182 200.691 185 205.691C188 210.691 184 215.191 184 215.191M175 204.191C175 204.191 172.18 208.691 175 212.691C177.82 216.691 184 215.191 184 215.191M184 215.191L132 244.191" stroke="#F3F3F3" stroke-width="1.5"/>
<path d="M37 289L51.5 293.5" stroke="#F3F3F3" stroke-width="1.5"/>
<path d="M42 311.5L56 302" stroke="#F3F3F3" stroke-width="1.5"/>
<path d="M58.5 324.5L62.5 307" stroke="#F3F3F3" stroke-width="1.5"/>
<path d="M354.349 120.128L250.612 89.5736L246.343 104.566L349.79 135.636L354.349 120.128Z" fill="#FFA589"/>
<path d="M249.32 125.62L287.463 135.575L278.374 167.71L238.789 156.99L249.32 125.62Z" fill="#75BC7B"/>
<path d="M246.343 104.566L250.612 89.5736L354.349 120.128L349.79 135.636M246.343 104.566L228.046 168.821L331.394 198.204L349.79 135.636M246.343 104.566L349.79 135.636M249.32 125.62L287.463 135.575L278.374 167.71L238.789 156.99L249.32 125.62Z" stroke="white"/>
<path d="M261.084 140.693L248.524 138.883L259.747 149.976" stroke="black"/>
<path d="M265.689 139.684L263.879 152.244" stroke="black"/>
<path d="M268.808 141.248L280.035 148.44L268.873 152.406" stroke="black"/>
<line x1="296.103" y1="137.992" x2="334.634" y2="149.117" stroke="white"/>
<line x1="294.372" y1="150.005" x2="332.903" y2="161.131" stroke="white"/>
<line x1="291.706" y1="160.77" x2="330.238" y2="171.896" stroke="white"/>
<line x1="287.948" y1="171.377" x2="326.48" y2="182.503" stroke="white"/>
<line x1="253.873" y1="98.464" x2="260.269" y2="100.5" stroke="black"/>
<line x1="264.48" y1="102.222" x2="270.876" y2="104.258" stroke="black"/>
<line x1="275.087" y1="105.98" x2="281.483" y2="108.016" stroke="black"/>
<path d="M318.687 236.979L304.49 244.58" stroke="#F3F3F3" stroke-width="1.5"/>
<path d="M289.855 256.152L205 300.17L218.789 321.914L260.421 300.17L302.052 278.426L289.855 256.152Z" fill="#E0D56E"/>
<path d="M266.52 308.656L221.971 332.521L233.638 355.856L318.493 308.656L305.235 287.442L266.52 308.656Z" fill="#FFA589"/>
<path d="M260.421 300.17L302.052 278.426L289.855 256.152L205 300.17L218.789 321.914L260.421 300.17ZM260.421 300.17L266.52 308.656M266.52 308.656L221.971 332.521L233.638 355.856L318.493 308.656L305.235 287.442L266.52 308.656Z" stroke="white"/>
<path d="M282.96 337.825L238.411 362.751L248.488 381.313L336.525 335.703L324.857 316.611L282.96 337.825Z" fill="#75BC7B"/>
<path d="M278.717 330.93L282.96 337.825M282.96 337.825L238.411 362.751L248.488 381.313L336.525 335.703L324.857 316.611L282.96 337.825Z" stroke="#F3F3F3"/>
<path d="M288.141 271.171L273.944 278.771" stroke="black" stroke-width="1.5"/>
<path d="M305.112 301.93L290.915 309.531" stroke="black" stroke-width="1.5"/>
<path d="M325.265 329.508L311.068 337.109" stroke="black" stroke-width="1.5"/>
<path d="M297.969 224L294.719 241.649" stroke="#F3F3F3" stroke-width="1.5"/>
<path d="M275.862 226.781L286.101 242.835" stroke="#F3F3F3" stroke-width="1.5"/>
</svg>
